<?xml version="1.0" encoding="iso-8859-1"?>
<!-- Generator: Adobe Illustrator 16.0.0, SVG Export Plug-In . SVG Version: 6.00 Build 0)  -->
<!DOCTYPE svg PUBLIC "-//W3C//DTD SVG 1.1//EN" "http://www.w3.org/Graphics/SVG/1.1/DTD/svg11.dtd">
<svg version="1.1" id="Capa_1" xmlns="http://www.w3.org/2000/svg" xmlns:xlink="http://www.w3.org/1999/xlink" x="0px" y="0px"
	 width="100%" height="100%" viewBox="0 0 2000 1473" style="enable-background:new 0 0 2000 1473;" xml:space="preserve">
<path style="fill:#030005;" d="M1177.417,864.259c-0.049-0.028-0.206,0-0.283-0.007c-0.063,0.007-0.141,0.028-0.211,0.051
	C1177.014,864.259,1177.324,864.217,1177.417,864.259z"/>
<rect x="1260.911" y="725.572" style="fill:#030005;" width="534.979" height="106.983"/>
<path style="fill:#030005;" d="M744.76,618.497c-45.129,28.534-94.75,51.641-142.486,75.58
	c-10.248,5.137-19.056,13.46-28.168,20.381c-12.134,9.231-11.272,33.277-1.519,43.157c19.658,19.879,53.429,12.163,75.222,0.338
	c13.584-7.379,23.893-17.64,34.005-28.971c17.305-19.366,36.254-37.647,52.551-57.793c10.973-13.567,26.206-31.304,19.059-50.318
	c-3.358-8.942-17.92,2.475-21.827,5.885c-2.32,2.008-4.278,9.134-5.505,11.931c-10.693,24.122-20.256,48.9-34.469,71.253
	c-9.753,15.334-30.146,40.225-20.502,59.28c7.398,14.645,29.017,8.287,40.896,2.383c7.067-3.51,14.135-7.026,21.19-10.528
	c7.875-3.919,9.946-2.672,6.546-11.029c-12.446,6.808-23.992,13.961-37.728,17.737c-6.673,1.832-18.371,4.327-22.625-3.354
	c-3.083-5.538,0.19-14.087,2.092-19.449c8.687-24.701,24.363-46.194,35.418-69.796c7.531-16.131,14.956-32.452,23.729-47.949
	c9.387-16.55,7.175,6.138,3.972,13.588c-12.044,27.955-33.976,52.621-55.82,73.488c-21.198,20.232-44.894,39.858-74.084,46.736
	c-15.404,3.629-47.05,1.494-41.392-22.248c3.954-16.546,21.259-29.542,33.972-39.352c10.973-8.485,26.126-15.362,35.454-25.658
	c-12.171,6.095-24.33,12.191-36.49,18.294c-12.021,6.011-22.069,14.334-32.638,22.628c-13.947,10.958-29.965,18.936-45.659,27.047
	c-3.33,1.72-35.595,15.736-34.407,19.611c-1.61-5.249-4.5-6.088-0.051-8.759c6.103-3.65,12.188-7.337,18.264-11.043
	c33.622-20.458,66.473-42.77,100.939-61.712c22.343-12.297,44.908-24.601,67.833-35.735c9.348-4.518,18.501-9.295,28.212-12.959
	c7.365-2.756,14.742-5.47,22.153-8.09C734.616,621.739,740.697,618.232,744.76,618.497z"/>
<path style="opacity:0.5;fill:#EDDE8F;" d="M883.61,299.69l-20.55,28.671l-1.093,1.125l-17.051,7.057l-31.92,14.253l-41.439,18.366
	l-12.866,5.524l-19.531,10.032l-24.002,11.477l8.493-8.116l42.539-40.662l38.511-31.642l44.11-36.649
	c0,0,34.375-29.375,51.184-27.888C919.286,252.95,883.61,299.69,883.61,299.69z"/>
<path style="fill:#030005;" d="M912.122,248.316c-20.639-14.285-47.609,9.507-62.496,22.192
	c-25.148,21.43-51.299,41.736-75.952,63.801c-56.046,50.256-110.509,102.874-160.88,158.867
	c-47.616,52.981-91.493,109.373-130.153,169.23c-7.967,12.347-14.619,28.767-26.811,37.421
	c-14.542,10.33-29.023,20.612-43.308,31.31c-30.32,22.713-61.063,44.813-91.673,67.124c-19.943,14.561-40.729,30.142-62.889,41.262
	c-4.383,2.206-17.463,8.76-21.067,1.924c-3.038-5.771,6.385-14.792,9.707-18.357c5.342-5.709,11.181-10.973,17.167-15.99
	c1.477-1.219,11.057-8.322,5.711-8.047c-9.775,0.499-21.184,14.861-26.969,21.479c-3.894,4.476-18.193,19.853-11.893,26.604
	c3.845,4.123,12.671,1.424,17.055,0.274c15.059-3.933,28.76-11.882,41.621-20.388c55.26-36.44,108.92-75.51,162.108-114.896
	c-8.273,13.502-19.696,28.534-20.722,44.904c-1.892,30.416,40.017,15.328,53.665,8.457c53.723-27.012,108.691-59.464,153.86-99.436
	c-33.168,18.675-65.528,38.732-97.965,58.625c-20.691,12.664-41.265,26.47-63.115,37.174c-14.167,6.956-41.6,17.971-37.61-9.259
	c4.173-28.344,27.867-53.862,49.707-70.239c58.696-44.018,112.391-92.438,167.271-141.007
	c37.42-33.122,75.866-65.021,113.146-98.312c39.065-34.916,77.771-71.039,111.407-111.3c13.722-16.43,28.425-34.435,35.741-54.861
	c5.366-14.983,2.142-24.151-10.782-32.791c4.118,2.748,8.203,5.585,12.226,8.46C916.213,251.101,914.153,249.719,912.122,248.316
	C887.878,231.52,933.279,262.971,912.122,248.316z M891.116,306.152c-52.333,73.005-123.218,129.424-190.032,188.392
	c-72.567,64.038-144.695,127.35-221.738,186.109c16.437-25.159,31.579-50.93,50.144-74.616c18.503-23.651,37.374-47.1,56.37-70.352
	c37.643-46.071,78.785-89.882,121.19-131.567c42.759-42.037,88.422-81.144,134.692-119.217
	c10.367-8.523,20.791-17.174,32.393-23.978c7.682-4.479,21.539-12.928,30.732-8.456C923.04,261.318,896.957,298.055,891.116,306.152
	C831.021,389.993,896.806,298.256,891.116,306.152z"/>
<path style="opacity:0.5;fill:#499AB6;" d="M660.333,439.001c-65.595,65.852-133.58,128.499-192.718,226.057
	c-3.08,5.06-6.163,10.14-9.227,15.215c-2.9,4.806-11.822,9.09-16.333,12.515c-9.132,6.978-18.382,13.792-27.579,20.669
	c-22.938,17.181-45.901,34.25-69.167,50.951c-8.943,6.427-12.974,4.841-24.64,3.171c-17.227-2.445-34.616-5.813-50.927-11.987
	c-17.868-6.787-27.699-7.812-34.076-26.592c-4.75-13.926,5.484-28.453,14-39.333c17.118-21.882,33.912-34.205,56-50.667
	C414.189,558.12,492.88,519.484,543,495.668C574.292,480.803,629.085,453.948,660.333,439.001z"/>
<path style="opacity:0.5;fill:#A83819;" d="M854.483,346.459c-37.021,37.896-64.72,60.46-103.648,96.363
	c-37.28,34.378-77.382,65.637-114.692,99.957c-47.02,43.245-99.228,88.17-149.985,126.881c13.862-21.17,42.907-67.904,58.082-84.056
	c18.595-19.813,20.712-25.993,39.514-46.75c37.082-40.98,23.781-36.191,105.429-119.84c7.949-8.146,15.539-5.356,27.367-10.769
	c14.246-6.49,34.014-15.729,48.336-22.083C796.739,372.037,822.271,359.74,854.483,346.459z"/>
<path style="fill:#030005;" d="M1327.64,594.385c-7.216-4.247-17.862,2.515-23.804,6.271c-15.082,9.493-28.661,22.371-37.471,37.952
	c-5.285,9.295-10.591,18.577-15.765,27.929c-0.557,1.007-1.605,2.325-1.331,3.601c0.05,0.218,4.214-4.961,3.517-5.673
	c2.65,2.691-23.622,25.321-24.835,26.229c-10.992,8.245-21.671,14.7-33.756,21.261c-13.402,7.252-29.895,16.061-45.319,15.617
	c-6.95-0.205-12.875-2.946-18.331-7.076c-10.28-7.787-3.825-22.854-0.823-32.868c5.13-17.301,23.177-39.493,37.631-50.225
	c12.601-9.344,30.312-9.746,44.616-14.961c16.885-6.159,10.761-18.84-6.308-14.897c-7.271,1.67-9.239,9.634-15.378,11.216
	c-5.897,1.508-11.803,3.055-17.729,4.584c0.084,0.014,0.219-0.028,0.254,0.014c-0.078-0.042-0.359,0-0.444,0.035
	c0.063-0.035,0.127-0.035,0.19-0.049c-1.431-0.367-5.562,1.036-6.736,1.24c-10.762,1.741-21.537,3.39-32.299,5.039
	c-15.115,2.311-38.111,5.426-51.092-5.533c-5.327-4.496-6.969-29.119-17.73-16.69c-4.638,5.334,0.105,6.522,3.08,12.079
	c2.974,5.578,5.172,10.025,4.615,16.487c-1.381,16.377-13.644,31.225-24.122,42.973c-12.023,13.439-25.581,25.497-39.602,36.808
	c-18.42,14.869-42.865,38.301-67.999,34.347c-40.932-6.469,15.511-77.475,25.363-90.415c7.256-9.507,16.028-19.204,20.345-30.549
	c2.417-6.427-1.427-9.21-6.434-4.962c-13.259,11.205-22.889,28.267-32.237,42.664c-14.542,22.459-38.986,36.821-60.982,51.451
	c-13.032,8.648-28.563,15.891-44.137,18.062c-12.872,1.784-23.865-2.044-19.872-16.758c2.353-8.583,6.546-17.814,11.765-24.996
	c8.876-10.12,17.839-19.761,27.075-29.605c1.864-1.938,24.942-27.696,20.025-28.908c-9.949-2.446-27.063,23.834-33.599,30.866
	c-10.714,11.521-22.248,21.72-34.456,31.607c-24.319,19.703-49.433,38.069-76.881,53.24c-11.624,6.42-57.396,33.763-60.37,5.512
	c-1.308-12.255,9.454-26.104,14.777-36.258c-9.517,5.956-18.058,15.729-20.154,26.998c-1.679,8.999-0.204,28.125,11.219,30.281
	c17.228,3.228,38.731-10.332,53.245-18.068c31.547-16.779,59.838-39.189,87.508-61.705c-6.378,11.754-13.303,32.233,0.991,41.219
	c12.201,7.646,29.119,1.733,41.094-3.355c23.763-10.134,45.821-25.616,65.623-42.072c-10.899,18.063-20.8,49.189,3.923,61.015
	c18.6,8.9,39.668-3.749,54.703-14.313c22.452-15.779,42.018-35.708,60.262-56.096c13.905-15.467,26.675-30.189,32.595-50.725
	c13.002,6.435,31.445,4.207,45.385,3.271c10.675-0.706,21.324-1.833,31.915-3.391c-19.358,18.675-67.096,74.805-26.44,97.646
	c32.283,18.139,77.682-16.039,101.042-36.511c-15.293,30.958-29.64,64.227-34.293,98.751c-1.104,8.168-2.987,19.662,0.197,27.737
	c2.826,7.04,9.952,20.416,9.261,4.038c-0.535-12.325-2.459-23.741-0.838-36.109c1.529-11.698,4.518-23.192,8.111-34.412
	c7.421-23.227,17.428-45.968,29.838-66.968c12.065-20.373,30.133-34.045,47.802-49.521c9.949-8.738,20.441-17.033,28.935-27.262
	C1325.803,608.095,1334.116,598.204,1327.64,594.385z M1269.698,651.894c0,0,0,0,2.354-5.371
	c8.428-19.203,46.045-46.687,44.996-41.278S1269.698,651.894,1269.698,651.894z"/>
<path style="fill:#030005;" d="M1599.457,790.073c-53.213,0.035-106.427,0.127-159.64,0.247
	c-36.976,0.084-73.961,0.177-110.936,0.331c-17.176,0.078-35.864-1.882-52.919,0.501c-12.698,1.769-27.01-0.218-39.793-0.338
	c-12.002-0.106-24.005-0.304-35.984-0.317c-26.61-0.078-53.191,0.232-79.752,0.346c-35.355,0.162-70.711,0.323-106.079,0.323
	c-139.508,0-279.052,0-418.563,0c-46.698,0-93.401,0-140.091,0c-37.596,0-75.242,1.6-112.84,0.282
	c-25.859-0.902-53.254-2.672-76.44-15.307c-22.244-12.135-45.401-31.931-43.097-59.563c3.305-39.541,45.961-62.212,74.664-83.558
	c22.149-16.466,43.954-33.104,66.776-48.643c20.212-13.731,42.52-25.196,63.65-37.431c22.625-13.111,45.64-25.109,68.622-37.579
	c45.782-24.831,93.304-48.068,140.721-69.531c46.754-21.166,92.945-43.428,140.11-63.717
	c94.349-40.573,188.855-79.981,284.392-117.634c48.915-19.277,98.449-37.139,147.984-54.76c27.308-9.725,54.348-20.19,81.465-30.546
	c31.762-12.156,67.244-29.644,101.677-28.316c14.588,0.547,55.565,16.917,38.309,37.365c-13.671,16.159-32.663,28.061-50.24,39.566
	c-38.879,25.465-78.751,49.013-119.392,71.5c-49.424,27.335-99.364,53.408-149.541,79.397
	c-97.804,50.708-196.985,98.893-295.572,148.054c-40.823,20.348-81.747,40.426-123.398,59.076
	c-9.785,4.383-79.109,38.03-80.902,24.918c-1.596-11.603,30.947-25.359,38.136-29.4c17.122-9.584,35.415-21.026,54.495-26.318
	c-11.377,3.157-23.763,13.027-34.026,18.746c-15.702,8.749-32.455,17.122-46.798,28.094c-15.422,11.8,7.421,5.307,13.302,2.748
	c13.027-5.679,26.307-10.951,39.145-17.046c41.621-19.74,83.325-39.331,124.561-59.887c99.817-49.746,201.175-97.42,299.579-149.95
	c98.722-52.709,199.695-105.017,292.133-168.44c7.188-4.898,13.966-10.159,20.724-15.582c4.921-3.945,14.674-8.886,13.857-16.468
	c-0.959-9.282-15.117-16.029-23.073-17.706c-10.593-2.239-21.903-0.656-32.383,1.42c-28.683,5.654-55.883,18.019-83.474,27.438
	c-50.973,17.424-101.344,36.737-152.204,54.531C1040.356,270.582,946.164,310.631,852.556,351
	c-95.093,41.012-188.74,84.796-282.213,129.305c-100.292,47.713-199.72,101.663-285.488,172.73
	c-23.357,19.323-67.659,51.797-45.771,86.476c13.837,21.958,37.79,30.274,62.134,35.694c35.137,7.815,71.627,9.633,107.519,10.168
	c68.79,1.016,137.61,1.001,206.433,0.501c99.273-0.72,198.567-0.382,297.847-0.382c100.689,0,201.361-0.049,302.052,0.028
	c122.431,0.078,244.876,0.149,367.298,0.227C1589.957,785.747,1592.17,786.466,1599.457,790.073z"/>
<path style="fill:#FFFFFF;" d="M1784.592,786.727c-174.549-0.105-349.115-0.134-523.681-0.19
	c-2.184,6.744,11.979,3.776,15.828,3.776c15.63,0,31.268,0,46.898,0c28.041,0,56.083,0,84.102,0
	c129.442,0,258.686-0.598,388.15-0.718C1791.054,787.213,1789.617,786.74,1784.592,786.727
	C1703.874,786.684,1789.617,786.74,1784.592,786.727z"/>
<g>
	<path style="fill:#FFFFFF;" d="M1269.755,800.611h6.071c0.792,0.013,1.563,0.269,2.313,0.768c0.75,0.5,1.301,1.104,1.655,1.811
		l3.035,6.144c0.572,1.109,0.859,2.268,0.859,3.475c0,1.121-0.305,2.273-0.914,3.456l-3.054,6.07
		c-0.391,0.78-0.951,1.405-1.683,1.874c-0.731,0.47-1.548,0.704-2.45,0.704h-5.869c-0.427,0-0.79-0.152-1.088-0.457
		c-0.299-0.305-0.448-0.664-0.448-1.079c0-0.427,0.149-0.795,0.448-1.106c0.298-0.311,0.661-0.466,1.088-0.466h1.608V803.72h-1.572
		c-0.427,0-0.789-0.155-1.088-0.466c-0.299-0.312-0.448-0.68-0.448-1.106c0-0.414,0.149-0.774,0.448-1.079
		S1269.328,800.611,1269.755,800.611z M1274.399,803.72v18.12l1.075-0.003c0.681,0,1.191-0.336,1.532-1.006l3.036-6.034
		c0.377-0.792,0.569-1.456,0.573-1.991c0-0.669-0.152-1.302-0.457-1.899l-3.145-6.255c-0.329-0.621-0.865-0.932-1.609-0.932
		H1274.399z"/>
	<path style="fill:#FFFFFF;" d="M1310.051,813.045v3.712c0,0.415-0.152,0.774-0.457,1.079s-0.664,0.457-1.079,0.457h-10.861v0.896
		c0,0.524,0.226,0.97,0.677,1.335l0.896,0.75c0.487,0.378,0.95,0.566,1.39,0.566h7.898c0.415,0,0.774,0.149,1.079,0.448
		s0.457,0.661,0.457,1.088c0,0.415-0.155,0.774-0.466,1.079c-0.312,0.305-0.668,0.457-1.07,0.457h-8.1
		c-0.537,0-1.101-0.112-1.691-0.338c-0.592-0.226-1.027-0.46-1.308-0.704l-1.371-1.207c-0.427-0.341-0.783-0.816-1.07-1.427
		c-0.286-0.609-0.43-1.17-0.43-1.682v-7.04c0-0.402,0.156-0.944,0.467-1.627s0.704-1.213,1.18-1.591l1.279-1.006
		c0.842-0.683,1.773-1.024,2.798-1.024h4.315c1.085,0,2.108,0.451,3.071,1.354l1.152,1.097
		C1309.637,810.461,1310.051,811.57,1310.051,813.045z M1297.69,812.808v2.377h9.325v-2.14c0-0.572-0.177-1.012-0.53-1.316
		l-0.896-0.786c-0.464-0.378-0.878-0.566-1.244-0.566h-3.857c-0.476,0-0.908,0.164-1.299,0.493l-0.896,0.75
		C1297.892,811.924,1297.69,812.32,1297.69,812.808z"/>
	<path style="fill:#FFFFFF;" d="M1336.395,808.803v2.926l-5.329,12.109c-0.342,0.716-0.793,1.074-1.354,1.074h-1.975
		c-0.72,0-1.244-0.373-1.573-1.12l-5.294-12.026v-2.963c0-0.427,0.149-0.789,0.448-1.088s0.661-0.448,1.088-0.448
		s0.789,0.149,1.088,0.448c0.299,0.298,0.448,0.66,0.448,1.086l0.013,2.355l4.678,10.538l4.651-10.569l0.002-2.322
		c0-0.427,0.152-0.789,0.457-1.088s0.677-0.448,1.115-0.448c0.427,0,0.789,0.149,1.088,0.448S1336.395,808.376,1336.395,808.803z"/>
	<path style="fill:#FFFFFF;" d="M1362.702,813.045v3.712c0,0.415-0.152,0.774-0.457,1.079s-0.664,0.457-1.079,0.457h-10.861v0.896
		c0,0.524,0.226,0.97,0.677,1.335l0.896,0.75c0.487,0.378,0.95,0.566,1.39,0.566h7.898c0.415,0,0.774,0.149,1.079,0.448
		s0.457,0.661,0.457,1.088c0,0.415-0.155,0.774-0.466,1.079c-0.312,0.305-0.668,0.457-1.07,0.457h-8.1
		c-0.537,0-1.101-0.112-1.691-0.338c-0.592-0.226-1.027-0.46-1.308-0.704l-1.371-1.207c-0.427-0.341-0.783-0.816-1.07-1.427
		c-0.286-0.609-0.43-1.17-0.43-1.682v-7.04c0-0.402,0.156-0.944,0.467-1.627s0.704-1.213,1.18-1.591l1.279-1.006
		c0.842-0.683,1.773-1.024,2.798-1.024h4.315c1.085,0,2.108,0.451,3.071,1.354l1.152,1.097
		C1362.288,810.461,1362.702,811.57,1362.702,813.045z M1350.342,812.808v2.377h9.325v-2.14c0-0.572-0.177-1.012-0.53-1.316
		l-0.896-0.786c-0.464-0.378-0.878-0.566-1.244-0.566h-3.857c-0.476,0-0.908,0.164-1.299,0.493l-0.896,0.75
		C1350.543,811.924,1350.342,812.32,1350.342,812.808z"/>
	<path style="fill:#FFFFFF;" d="M1385.957,824.912h-9.289c-0.427,0-0.789-0.155-1.088-0.466c-0.299-0.312-0.448-0.68-0.448-1.106
		c0-0.414,0.149-0.774,0.448-1.079s0.661-0.457,1.088-0.457h3.072v-18.12h-3.109c-0.427,0-0.789-0.149-1.088-0.448
		s-0.447-0.661-0.447-1.088s0.148-0.789,0.447-1.088s0.661-0.448,1.088-0.448h4.682c0.414,0,0.773,0.152,1.078,0.457
		s0.458,0.665,0.458,1.079v19.656h3.108c0.414,0,0.773,0.152,1.078,0.457s0.457,0.665,0.457,1.079c0,0.427-0.149,0.795-0.447,1.106
		C1386.746,824.757,1386.383,824.912,1385.957,824.912z"/>
	<path style="fill:#FFFFFF;" d="M1415.354,812.808v6.491c0,1.377-0.648,2.651-1.947,3.821c-1.298,1.17-2.636,1.756-4.014,1.756
		h-3.602c-1.402,0-2.743-0.595-4.023-1.783c-1.279-1.188-1.92-2.453-1.92-3.794v-6.491c0-1.341,0.625-2.605,1.875-3.794
		c1.249-1.188,2.605-1.783,4.068-1.783h3.602c1.378-0.024,2.716,0.549,4.014,1.719
		C1414.706,810.119,1415.354,811.405,1415.354,812.808z M1402.957,812.936v6.217c0,0.561,0.201,1.006,0.604,1.335l1.152,0.987
		c0.256,0.22,0.615,0.329,1.079,0.329h3.565c0.523,0,0.999-0.188,1.426-0.567l0.933-0.822c0.378-0.293,0.567-0.701,0.567-1.226
		v-6.217c0-0.609-0.189-1.061-0.567-1.353l-1.079-0.859c-0.365-0.305-0.792-0.457-1.279-0.457h-3.182
		c-0.695,0-1.231,0.164-1.609,0.493l-1.042,0.896C1403.146,812.009,1402.957,812.424,1402.957,812.936z"/>
	<path style="fill:#FFFFFF;" d="M1429.319,823.157v6.802c0,0.438-0.149,0.811-0.448,1.115s-0.661,0.457-1.088,0.457
		s-0.795-0.152-1.106-0.457c-0.311-0.305-0.466-0.677-0.466-1.115v-21.905c0-0.415,0.152-0.774,0.457-1.079s0.677-0.457,1.115-0.457
		c0.414,0,0.774,0.152,1.079,0.457s0.457,0.664,0.457,1.079v0.987c1.487-1.658,2.956-2.487,4.406-2.487h0.714
		c1.084,0,2.084,0.402,2.998,1.207l2.561,2.213c1.121,0.975,1.682,2.212,1.682,3.712v4.79c0,1.512-0.604,2.786-1.81,3.821
		l-2.506,2.158c-0.829,0.756-1.877,1.134-3.145,1.134h-0.677c-1.194,0-2.206-0.415-3.035-1.243L1429.319,823.157z M1433.652,822.48
		h0.787c0.377,0,0.779-0.189,1.206-0.567l2.396-2.103c0.402-0.316,0.604-0.75,0.604-1.298v-4.956c0-0.487-0.226-0.92-0.677-1.298
		l-2.578-2.213c-0.292-0.256-0.609-0.384-0.95-0.384h-0.896c-0.341,0-0.786,0.281-1.335,0.842l-2.285,2.267
		c-0.402,0.402-0.604,0.854-0.604,1.354v3.932c0,0.475,0.226,0.938,0.677,1.39l2.212,2.212
		C1432.757,822.206,1433.238,822.48,1433.652,822.48z"/>
	<path style="fill:#FFFFFF;" d="M1452.153,823.376v-14.573c0-0.427,0.148-0.789,0.447-1.088s0.661-0.448,1.088-0.448
		c0.793,0,1.292,0.391,1.5,1.171c0.852-0.805,1.802-1.207,2.849-1.207c1.229,0,2.239,0.524,3.03,1.572
		c0.974-1.048,2.045-1.572,3.214-1.572c0.949,0,1.773,0.338,2.474,1.015s1.074,1.539,1.123,2.588l0.439,12.543
		c0,0.415-0.153,0.774-0.458,1.079s-0.664,0.457-1.078,0.457c-0.427,0-0.793-0.152-1.098-0.457s-0.463-0.664-0.476-1.079
		l-0.365-12.05c-0.024-0.658-0.226-0.987-0.604-0.987c-0.207,0-0.421,0.092-0.64,0.274l-1.829,1.536v11.227
		c0,0.415-0.149,0.769-0.447,1.061c-0.299,0.293-0.662,0.439-1.088,0.439c-0.415,0-0.774-0.149-1.079-0.448
		s-0.457-0.661-0.457-1.088v-12.215c0-0.523-0.225-0.786-0.673-0.786c-0.219,0-0.419,0.079-0.601,0.237l-2.201,1.865v10.935
		c0,0.415-0.146,0.774-0.438,1.079c-0.293,0.305-0.646,0.457-1.061,0.457c-0.427,0-0.796-0.152-1.106-0.457
		S1452.153,823.791,1452.153,823.376z"/>
	<path style="fill:#FFFFFF;" d="M1494.332,813.045v3.712c0,0.415-0.152,0.774-0.457,1.079s-0.664,0.457-1.079,0.457h-10.861v0.896
		c0,0.524,0.226,0.97,0.677,1.335l0.896,0.75c0.487,0.378,0.95,0.566,1.39,0.566h7.898c0.415,0,0.774,0.149,1.079,0.448
		s0.457,0.661,0.457,1.088c0,0.415-0.155,0.774-0.466,1.079c-0.312,0.305-0.668,0.457-1.07,0.457h-8.1
		c-0.537,0-1.101-0.112-1.691-0.338c-0.592-0.226-1.027-0.46-1.308-0.704l-1.371-1.207c-0.427-0.341-0.783-0.816-1.07-1.427
		c-0.286-0.609-0.43-1.17-0.43-1.682v-7.04c0-0.402,0.156-0.944,0.467-1.627s0.704-1.213,1.18-1.591l1.279-1.006
		c0.842-0.683,1.773-1.024,2.798-1.024h4.315c1.085,0,2.108,0.451,3.071,1.354l1.152,1.097
		C1493.918,810.461,1494.332,811.57,1494.332,813.045z M1481.972,812.808v2.377h9.325v-2.14c0-0.572-0.177-1.012-0.53-1.316
		l-0.896-0.786c-0.464-0.378-0.878-0.566-1.244-0.566h-3.857c-0.476,0-0.908,0.164-1.299,0.493l-0.896,0.75
		C1482.173,811.924,1481.972,812.32,1481.972,812.808z"/>
	<path style="fill:#FFFFFF;" d="M1512.457,810.833l-4.196,2.724v9.819c0,0.415-0.152,0.774-0.457,1.079s-0.664,0.457-1.078,0.457
		c-0.415,0-0.774-0.152-1.079-0.457s-0.457-0.664-0.457-1.079v-14.573c0-0.427,0.149-0.795,0.448-1.106
		c0.298-0.311,0.661-0.466,1.088-0.466c0.414,0,0.773,0.155,1.078,0.466c0.305,0.312,0.457,0.68,0.457,1.106v1.024l2.804-1.701
		c0.94-0.597,2.002-0.896,3.186-0.896h1.429c1.221,0,2.276,0.433,3.168,1.298c0.891,0.866,1.36,1.933,1.409,3.2l0.421,11.647
		c0.012,0.415-0.135,0.774-0.438,1.079c-0.306,0.305-0.671,0.457-1.098,0.457c-0.402,0-0.756-0.137-1.061-0.411
		s-0.463-0.649-0.476-1.125l-0.457-11.465c-0.036-1.072-0.599-1.608-1.686-1.608h-1.502
		C1513.495,810.303,1512.994,810.479,1512.457,810.833z"/>
	<path style="fill:#FFFFFF;" d="M1542.303,824.912h-3.072c-1.268,0-2.358-0.451-3.272-1.354c-0.914-0.901-1.372-1.986-1.372-3.254
		v-9.966h-1.572c-0.427,0-0.789-0.146-1.088-0.438c-0.299-0.293-0.448-0.658-0.448-1.098c0-0.427,0.149-0.789,0.448-1.088
		s0.661-0.448,1.088-0.448h1.609V803.5c0-0.426,0.149-0.789,0.448-1.088c0.298-0.298,0.661-0.447,1.088-0.447
		c0.402,0,0.759,0.152,1.069,0.457s0.467,0.664,0.467,1.078v3.767h6.18c0.414,0,0.774,0.153,1.079,0.458s0.457,0.664,0.457,1.078
		c0,0.427-0.152,0.79-0.457,1.088c-0.305,0.299-0.665,0.448-1.079,0.448h-6.217v9.966c0,0.414,0.155,0.773,0.467,1.078
		c0.311,0.305,0.679,0.457,1.105,0.457h2.999c0.816,0,1.359-0.441,1.627-1.325c0.269-0.884,0.787-1.326,1.555-1.326
		c0.451,0,0.819,0.149,1.106,0.448c0.286,0.299,0.43,0.674,0.43,1.125c0,0.926-0.437,1.85-1.308,2.77
		C1544.768,824.452,1543.656,824.912,1542.303,824.912z"/>
	<path style="fill:#FFFFFF;" d="M1597.083,824.449l-1.835-1.907l-2.359,2.041c-0.146,0.195-0.433,0.293-0.859,0.293h-3.182
		c-1.28,0-2.374-0.458-3.282-1.372s-1.362-2.018-1.362-3.31v-2.139c0-0.5,0.201-0.921,0.604-1.262l2.824-2.392l-2.86-3.112
		c-0.378-0.415-0.567-0.89-0.567-1.427v-1.92c0-1.268,0.457-2.358,1.372-3.272c0.914-0.915,2.005-1.372,3.272-1.372h3.108
		c1.268,0,2.359,0.457,3.273,1.372c0.914,0.914,1.371,2.005,1.371,3.272v2.066c0,0.573-0.263,1.085-0.789,1.536l-3.688,3.137
		l3.388,3.593l1.569-1.331c0.353-0.308,0.742-0.462,1.169-0.462c0.413,0,0.764,0.153,1.049,0.457c0.286,0.306,0.43,0.665,0.43,1.079
		c0,0.427-0.158,0.78-0.476,1.061l-1.616,1.398l1.616,1.819c0.293,0.33,0.438,0.701,0.438,1.116c0,0.414-0.148,0.768-0.446,1.061
		c-0.298,0.292-0.66,0.438-1.085,0.438C1597.733,824.912,1597.374,824.758,1597.083,824.449z M1593.528,809.407v-1.5
		c0-0.427-0.149-0.795-0.447-1.106c-0.299-0.311-0.662-0.466-1.088-0.466h-3.146c-0.427,0-0.789,0.156-1.088,0.468
		c-0.299,0.313-0.448,0.683-0.448,1.11v1.542l2.715,2.919L1593.528,809.407z M1587.312,818.77v1.499
		c0,0.427,0.152,0.789,0.457,1.087c0.305,0.299,0.664,0.448,1.078,0.448h2.504l1.749-1.531l-3.305-3.612L1587.312,818.77z"/>
	<path style="fill:#FFFFFF;" d="M1638.317,800.611h6.071c0.792,0.013,1.563,0.269,2.313,0.768c0.75,0.5,1.301,1.104,1.655,1.811
		l3.035,6.144c0.572,1.109,0.859,2.268,0.859,3.475c0,1.121-0.305,2.273-0.914,3.456l-3.054,6.07
		c-0.391,0.78-0.951,1.405-1.683,1.874c-0.731,0.47-1.548,0.704-2.45,0.704h-5.869c-0.427,0-0.79-0.152-1.088-0.457
		c-0.299-0.305-0.448-0.664-0.448-1.079c0-0.427,0.149-0.795,0.448-1.106c0.298-0.311,0.661-0.466,1.088-0.466h1.608V803.72h-1.572
		c-0.427,0-0.789-0.155-1.088-0.466c-0.299-0.312-0.448-0.68-0.448-1.106c0-0.414,0.149-0.774,0.448-1.079
		S1637.891,800.611,1638.317,800.611z M1642.962,803.72v18.12l1.075-0.003c0.681,0,1.191-0.336,1.532-1.006l3.036-6.034
		c0.377-0.792,0.569-1.456,0.573-1.991c0-0.669-0.152-1.302-0.457-1.899l-3.145-6.255c-0.329-0.621-0.865-0.932-1.609-0.932
		H1642.962z"/>
	<path style="fill:#FFFFFF;" d="M1678.613,813.045v3.712c0,0.415-0.152,0.774-0.457,1.079s-0.664,0.457-1.079,0.457h-10.861v0.896
		c0,0.524,0.226,0.97,0.677,1.335l0.896,0.75c0.487,0.378,0.95,0.566,1.39,0.566h7.898c0.415,0,0.774,0.149,1.079,0.448
		s0.457,0.661,0.457,1.088c0,0.415-0.155,0.774-0.466,1.079c-0.312,0.305-0.668,0.457-1.07,0.457h-8.1
		c-0.537,0-1.101-0.112-1.691-0.338c-0.592-0.226-1.027-0.46-1.308-0.704l-1.371-1.207c-0.427-0.341-0.783-0.816-1.07-1.427
		c-0.286-0.609-0.43-1.17-0.43-1.682v-7.04c0-0.402,0.156-0.944,0.467-1.627s0.704-1.213,1.18-1.591l1.279-1.006
		c0.842-0.683,1.773-1.024,2.798-1.024h4.315c1.085,0,2.108,0.451,3.071,1.354l1.152,1.097
		C1678.199,810.461,1678.613,811.57,1678.613,813.045z M1666.253,812.808v2.377h9.325v-2.14c0-0.572-0.177-1.012-0.53-1.316
		l-0.896-0.786c-0.464-0.378-0.878-0.566-1.244-0.566h-3.857c-0.476,0-0.908,0.164-1.299,0.493l-0.896,0.75
		C1666.454,811.924,1666.253,812.32,1666.253,812.808z"/>
	<path style="fill:#FFFFFF;" d="M1693.768,807.267h7.04c1.097,0,2.065,0.327,2.907,0.979c0.841,0.652,1.262,1.289,1.262,1.911
		c0,0.438-0.155,0.799-0.467,1.079c-0.311,0.28-0.655,0.42-1.033,0.42c-0.487,0-0.933-0.22-1.335-0.658
		c-0.401-0.438-0.822-0.658-1.261-0.658h-6.949c-0.683,0-1.023,0.284-1.023,0.852c0,0.399,0.228,0.701,0.684,0.906l8.166,3.637
		c0.829,0.365,1.509,0.953,2.039,1.764c0.53,0.812,0.795,1.71,0.795,2.697c0,1.316-0.466,2.433-1.398,3.347s-1.99,1.371-3.172,1.371
		h-6.218c-1.072,0-2.069-0.323-2.989-0.969c-0.921-0.646-1.381-1.274-1.381-1.884c0-0.402,0.149-0.759,0.448-1.069
		c0.299-0.312,0.686-0.467,1.161-0.467c0.39,0,0.808,0.22,1.253,0.658c0.444,0.439,1.088,0.658,1.929,0.658h5.724
		c0.45,0,0.828-0.173,1.134-0.521c0.304-0.348,0.457-0.747,0.457-1.198c0-0.694-0.342-1.194-1.024-1.499l-8.246-3.712
		c-0.793-0.354-1.402-0.865-1.829-1.536c-0.427-0.67-0.64-1.353-0.64-2.048c0-1.097,0.381-2.048,1.143-2.853
		S1692.646,807.267,1693.768,807.267z"/>
	<path style="fill:#FFFFFF;" d="M1728.194,824.876h-9.362c-0.427,0-0.789-0.149-1.088-0.448s-0.448-0.661-0.448-1.088
		c0-0.414,0.149-0.774,0.448-1.079s0.661-0.457,1.088-0.457h3.146v-11.465h-3.109c-0.427,0-0.789-0.152-1.088-0.457
		s-0.447-0.664-0.447-1.079c0-0.427,0.148-0.795,0.447-1.106c0.299-0.311,0.661-0.466,1.088-0.466h4.682
		c0.427,0,0.789,0.155,1.088,0.466c0.299,0.312,0.448,0.68,0.448,1.106v13.001h3.071c0.427,0,0.796,0.149,1.106,0.448
		s0.466,0.661,0.466,1.088s-0.152,0.789-0.457,1.088S1728.608,824.876,1728.194,824.876z M1721.94,799.258h1.609
		c0.427,0,0.789,0.149,1.088,0.448s0.448,0.661,0.448,1.088v1.316c0,0.427-0.149,0.796-0.448,1.106s-0.661,0.467-1.088,0.467h-1.646
		c-0.439,0-0.808-0.159-1.106-0.476c-0.299-0.317-0.442-0.671-0.43-1.061l0.036-1.354c0-0.427,0.149-0.789,0.448-1.088
		S1721.514,799.258,1721.94,799.258z"/>
	<path style="fill:#FFFFFF;" d="M1751.776,831.495h-6.655c-0.428,0-0.79-0.146-1.089-0.439c-0.299-0.292-0.447-0.658-0.447-1.097
		c0-0.427,0.148-0.786,0.447-1.079c0.299-0.292,0.661-0.438,1.089-0.438h6.655c0.402,0,0.78-0.153,1.134-0.457l1.042-0.896
		c0.354-0.269,0.53-0.621,0.53-1.061v-4.681c-1.438,1.45-2.84,2.176-4.205,2.176h-2.359c-1.219,0-2.315-0.421-3.291-1.262
		l-1.152-1.024c-0.378-0.316-0.703-0.779-0.978-1.39c-0.274-0.609-0.412-1.206-0.412-1.791v-5.084c0-0.719,0.138-1.401,0.412-2.048
		c0.274-0.646,0.6-1.127,0.978-1.444l1.262-1.079c0.902-0.779,1.963-1.17,3.182-1.17h2.213c1.207,0,2.304,0.427,3.291,1.28
		l1.061,0.896l-0.036-0.604c0-0.414,0.152-0.773,0.457-1.078s0.664-0.458,1.079-0.458c0.426,0,0.795,0.149,1.105,0.448
		c0.312,0.299,0.467,0.661,0.467,1.088v17.225c0,1.305-0.524,2.42-1.572,3.347l-1.244,1.078c-0.316,0.28-0.765,0.524-1.344,0.731
		S1752.276,831.495,1751.776,831.495z M1750.021,810.303h-2.066c-0.451,0-0.884,0.177-1.299,0.53l-0.95,0.786
		c-0.366,0.305-0.549,0.719-0.549,1.243v5.12c0,0.414,0.201,0.804,0.604,1.17l1.006,0.896c0.316,0.269,0.651,0.402,1.006,0.402
		h2.505c0.365,0,0.768-0.183,1.206-0.548l2.433-2.066c0.378-0.329,0.566-0.731,0.566-1.207v-2.322c0-0.561-0.213-1.018-0.64-1.371
		l-2.505-2.14C1750.983,810.467,1750.545,810.303,1750.021,810.303z"/>
	<path style="fill:#FFFFFF;" d="M1775.716,810.833l-4.196,2.724v9.819c0,0.415-0.152,0.774-0.457,1.079s-0.664,0.457-1.078,0.457
		c-0.415,0-0.774-0.152-1.079-0.457s-0.457-0.664-0.457-1.079v-14.573c0-0.427,0.149-0.795,0.448-1.106
		c0.298-0.311,0.661-0.466,1.088-0.466c0.414,0,0.773,0.155,1.078,0.466c0.305,0.312,0.457,0.68,0.457,1.106v1.024l2.804-1.701
		c0.94-0.597,2.002-0.896,3.186-0.896h1.429c1.221,0,2.276,0.433,3.168,1.298c0.891,0.866,1.36,1.933,1.409,3.2l0.421,11.647
		c0.012,0.415-0.135,0.774-0.438,1.079c-0.306,0.305-0.671,0.457-1.098,0.457c-0.402,0-0.756-0.137-1.061-0.411
		s-0.463-0.649-0.476-1.125l-0.457-11.465c-0.036-1.072-0.599-1.608-1.686-1.608h-1.502
		C1776.754,810.303,1776.253,810.479,1775.716,810.833z"/>
</g>
<g>
	<path style="fill:#FFFFFF;" d="M1284.336,771.279c-1.601,0-2.542-0.329-2.872-2.024h-0.094c-0.329,1.695-1.271,2.024-2.871,2.024
		h-3.531c-1.647,0-2.071-0.282-2.871-1.694l-1.647-2.872c-0.612-1.035-0.659-1.13-0.659-2.4V737.01c0-1.506,0.659-2.354,2.354-2.354
		s2.354,0.847,2.354,2.354v27.303l1.271,2.26h2.023l1.271-2.26v-14.828c0-1.459,0.659-2.777,2.354-2.777s2.354,1.318,2.354,2.777
		v14.828l1.271,2.26h2.024l1.271-2.26V737.01c0-1.506,0.659-2.354,2.354-2.354s2.354,0.847,2.354,2.354v27.303
		c0,1.271-0.047,1.365-0.659,2.4l-1.647,2.872c-0.8,1.412-1.224,1.694-2.871,1.694H1284.336z"/>
	<path style="fill:#FFFFFF;" d="M1311.828,771.279c-1.883,0-2.636,0-4.048-1.224l-1.931-1.695c-1.788-1.601-2.307-2.636-2.307-5.084
		v-8.708c0-2.4,0.33-3.813,2.213-5.413l1.601-1.365c2.118-1.836,3.153-1.883,4.989-1.883h4.143c2.213,0,3.248,0.235,4.99,1.647
		l1.836,1.459c2.071,1.647,2.354,3.39,2.354,5.884v3.625c0,2.589-0.424,3.342-3.107,3.342h-14.498v1.507
		c0,0.424,0.329,0.988,0.659,1.318l1.13,1.224c0.611,0.659,1.506,0.847,3.013,0.847h9.696c1.507,0,3.107,0.33,3.107,2.26
		c0,1.978-1.789,2.26-3.107,2.26H1311.828z M1308.063,757.346h13.086v-2.73c0-0.848,0.048-1.554-0.564-2.118l-1.742-1.507
		c-0.564-0.518-1.459-0.564-2.165-0.564h-3.813c-0.848,0-1.554,0-2.307,0.518l-1.554,1.13c-0.564,0.424-0.941,0.753-0.941,2.071
		V757.346z"/>
	<path style="fill:#FFFFFF;" d="M1341.252,749.202l0.8-0.801c1.507-1.506,2.401-2.494,4.473-2.494h4.989
		c1.177,0,2.213,0.658,3.343,1.6l1.553,1.318c1.789,1.554,2.448,2.824,2.448,5.226v9.085c0,2.4-0.659,3.672-2.448,5.225
		l-1.553,1.318c-1.083,0.895-2.401,1.601-3.531,1.601h-4.66c-1.836,0-3.106-1.13-4.378-2.307l-1.035-0.988v0.282
		c0,1.459-0.471,3.013-2.26,3.013c-1.93,0-2.26-1.601-2.26-3.154v-28.432c0-1.554,0.33-3.107,2.26-3.107s2.26,1.553,2.26,3.107
		V749.202z M1341.252,760.405c0,1.459,0.188,2.024,1.365,3.013l2.589,2.213c0.564,0.471,1.271,1.129,1.741,1.129h3.437
		c0.659,0,1.083-0.141,1.412-0.423l1.978-1.647c0.518-0.424,0.564-1.507,0.564-2.401v-8.002c0-0.895-0.235-1.601-0.611-1.883
		l-2.071-1.601c-0.282-0.235-0.612-0.377-1.083-0.377h-3.154c-0.611,0-1.364,0.329-1.883,0.8l-2.918,2.542
		c-0.753,0.612-1.365,1.318-1.365,2.684V760.405z"/>
	<path style="fill:#FFFFFF;" d="M1386.491,750.144c1.93,0,2.824,0.753,2.824,2.871s-0.895,2.872-2.824,2.872h-11.016
		c-1.93,0-2.824-0.754-2.824-2.872s0.895-2.871,2.824-2.871H1386.491z"/>
	<path style="fill:#FFFFFF;" d="M1416.525,766.572h6.92c1.224,0,2.354,0.659,2.354,2.354s-1.13,2.354-2.354,2.354h-18.547
		c-1.224,0-2.354-0.659-2.354-2.354s1.13-2.354,2.354-2.354h6.92v-27.209h-6.92c-1.224,0-2.354-0.659-2.354-2.354
		s1.13-2.354,2.354-2.354h18.547c1.224,0,2.354,0.659,2.354,2.354s-1.13,2.354-2.354,2.354h-6.92V766.572z"/>
	<path style="fill:#FFFFFF;" d="M1440.817,755.039v13.134c0,1.553-0.33,3.106-2.26,3.106s-2.26-1.554-2.26-3.106v-18.924
		c0-1.647,0.188-3.342,2.26-3.342c2.024,0,2.26,1.694,2.26,3.295v0.518v0.094l3.672-2.4c1.177-0.753,2.447-1.506,3.907-1.506h3.342
		c1.742,0,2.824,0.471,4.189,1.647c2.024,1.741,1.93,3.671,2.024,6.119l0.471,14.216c0.047,1.601-0.188,3.39-2.213,3.39
		c-1.836,0-2.212-1.554-2.259-3.06l-0.471-13.934c-0.095-2.777-0.33-3.86-3.061-3.86h-1.506c-0.471,0-0.941,0.142-1.412,0.424
		L1440.817,755.039z"/>
	<path style="fill:#FFFFFF;" d="M1478.573,762.759c0,2.542-0.095,4.001,3.013,4.001h2.307c1.835,0,2.683-0.141,3.153-1.977
		c0.282-1.083,1.13-1.836,2.26-1.836c1.271,0,2.307,0.988,2.307,2.26c0,1.271-0.801,2.871-1.554,3.766
		c-1.647,1.978-3.813,2.307-6.214,2.307h-2.307c-2.259,0-4.236-0.518-5.837-2.26c-1.741-1.93-1.647-3.859-1.647-6.308v-12.286
		h-1.459c-1.318,0-3.107-0.282-3.107-2.26c0-1.93,1.601-2.259,3.107-2.259h1.459v-4.613c0-1.554,0.33-3.107,2.26-3.107
		s2.26,1.554,2.26,3.107v4.613h7.578c1.507,0,3.107,0.329,3.107,2.259c0,1.978-1.789,2.26-3.107,2.26h-7.578V762.759z"/>
	<path style="fill:#FFFFFF;" d="M1510.961,771.279c-1.883,0-2.636,0-4.048-1.224l-1.931-1.695c-1.788-1.601-2.307-2.636-2.307-5.084
		v-8.708c0-2.4,0.33-3.813,2.213-5.413l1.601-1.365c2.118-1.836,3.153-1.883,4.989-1.883h4.143c2.213,0,3.248,0.235,4.99,1.647
		l1.836,1.459c2.071,1.647,2.354,3.39,2.354,5.884v3.625c0,2.589-0.424,3.342-3.107,3.342h-14.498v1.507
		c0,0.424,0.329,0.988,0.659,1.318l1.13,1.224c0.611,0.659,1.506,0.847,3.013,0.847h9.696c1.507,0,3.107,0.33,3.107,2.26
		c0,1.978-1.789,2.26-3.107,2.26H1510.961z M1507.195,757.346h13.086v-2.73c0-0.848,0.048-1.554-0.564-2.118l-1.742-1.507
		c-0.564-0.518-1.459-0.564-2.165-0.564h-3.813c-0.848,0-1.554,0-2.307,0.518l-1.554,1.13c-0.564,0.424-0.941,0.753-0.941,2.071
		V757.346z"/>
	<path style="fill:#FFFFFF;" d="M1549.28,766.76h3.39c1.506,0,3.106,0.33,3.106,2.26c0,1.978-1.788,2.26-3.106,2.26h-11.486
		c-1.317,0-3.106-0.282-3.106-2.26c0-1.93,1.601-2.26,3.106-2.26h3.578v-25.654h-3.578c-1.317,0-3.106-0.282-3.106-2.26
		c0-1.93,1.601-2.259,3.106-2.259h4.755c2.589,0,3.342,0.47,3.342,3.154V766.76z"/>
	<path style="fill:#FFFFFF;" d="M1582.47,766.76h3.39c1.506,0,3.106,0.33,3.106,2.26c0,1.978-1.788,2.26-3.106,2.26h-11.486
		c-1.317,0-3.106-0.282-3.106-2.26c0-1.93,1.601-2.26,3.106-2.26h3.578v-25.654h-3.578c-1.317,0-3.106-0.282-3.106-2.26
		c0-1.93,1.601-2.259,3.106-2.259h4.755c2.589,0,3.342,0.47,3.342,3.154V766.76z"/>
	<path style="fill:#FFFFFF;" d="M1615.658,766.76h3.39c1.506,0,3.106,0.33,3.106,2.26c0,1.978-1.788,2.26-3.106,2.26h-11.486
		c-1.317,0-3.106-0.282-3.106-2.26c0-1.93,1.601-2.26,3.106-2.26h3.578v-16.334h-3.578c-1.317,0-3.106-0.282-3.106-2.26
		c0-1.93,1.601-2.259,3.106-2.259h4.755c2.589,0,3.342,0.471,3.342,3.153V766.76z M1608.833,736.774
		c0-1.601,0.895-2.118,2.118-2.118h2.589c1.224,0,2.118,0.518,2.118,2.118v2.165c0,1.601-0.895,2.119-2.118,2.119h-2.589
		c-1.224,0-2.118-0.519-2.118-2.119V736.774z"/>
	<path style="fill:#FFFFFF;" d="M1635.431,754.333c0-2.118,0.612-4.001,1.554-4.755l3.295-2.589
		c0.941-0.753,1.647-1.082,2.824-1.082h4.378c1.225,0,2.684,0.894,4.425,2.259l1.13,0.895v-0.518c0-1.412,0.754-2.636,2.307-2.636
		c1.978,0,2.213,1.647,2.213,3.153v22.077c0,4.096-0.33,4.943-2.213,6.544l-1.506,1.271c-1.978,1.647-3.107,1.93-5.649,1.93h-7.484
		c-1.318,0-3.106-0.282-3.106-2.259c0-1.931,1.601-2.26,3.106-2.26h8.285c0.941,0,1.554-0.424,2.26-1.036l1.13-1.035
		c0.376-0.377,0.658-1.035,0.658-1.883v-6.214l-0.941,0.941c-1.035,1.036-2.447,2.213-3.719,2.213h-5.319
		c-0.941,0-2.023-0.142-3.389-1.365l-2.825-2.542c-1.317-1.224-1.412-2.401-1.412-4.236V754.333z M1639.95,760.547
		c0,0.941,0.047,1.93,0.564,2.354l1.883,1.506c0.33,0.283,0.754,0.424,1.318,0.424h3.295c0.565,0,1.225-0.471,2.071-1.177
		l3.483-2.871c0.33-0.283,0.471-0.895,0.471-1.507v-3.295c0-0.612-0.141-1.224-0.471-1.507l-3.483-2.871
		c-0.847-0.706-1.506-1.177-2.071-1.177h-3.295c-0.564,0-0.988,0.142-1.318,0.424l-1.883,1.506
		c-0.518,0.424-0.564,1.412-0.564,2.354V760.547z"/>
	<path style="fill:#FFFFFF;" d="M1676.904,771.279c-1.883,0-2.636,0-4.048-1.224l-1.931-1.695c-1.788-1.601-2.307-2.636-2.307-5.084
		v-8.708c0-2.4,0.33-3.813,2.213-5.413l1.601-1.365c2.118-1.836,3.153-1.883,4.989-1.883h4.143c2.213,0,3.248,0.235,4.99,1.647
		l1.836,1.459c2.071,1.647,2.354,3.39,2.354,5.884v3.625c0,2.589-0.424,3.342-3.107,3.342h-14.498v1.507
		c0,0.424,0.329,0.988,0.659,1.318l1.13,1.224c0.611,0.659,1.506,0.847,3.013,0.847h9.696c1.507,0,3.107,0.33,3.107,2.26
		c0,1.978-1.789,2.26-3.107,2.26H1676.904z M1673.139,757.346h13.086v-2.73c0-0.848,0.048-1.554-0.564-2.118l-1.742-1.507
		c-0.564-0.518-1.459-0.564-2.165-0.564h-3.813c-0.848,0-1.554,0-2.307,0.518l-1.554,1.13c-0.564,0.424-0.941,0.753-0.941,2.071
		V757.346z"/>
	<path style="fill:#FFFFFF;" d="M1706.328,755.039v13.134c0,1.553-0.33,3.106-2.26,3.106s-2.26-1.554-2.26-3.106v-18.924
		c0-1.647,0.188-3.342,2.26-3.342c2.024,0,2.26,1.694,2.26,3.295v0.518v0.094l3.672-2.4c1.177-0.753,2.447-1.506,3.907-1.506h3.342
		c1.742,0,2.824,0.471,4.189,1.647c2.024,1.741,1.93,3.671,2.024,6.119l0.471,14.216c0.047,1.601-0.188,3.39-2.213,3.39
		c-1.836,0-2.212-1.554-2.259-3.06l-0.471-13.934c-0.095-2.777-0.33-3.86-3.061-3.86h-1.506c-0.471,0-0.941,0.142-1.412,0.424
		L1706.328,755.039z"/>
	<path style="fill:#FFFFFF;" d="M1734.997,756.404c0-2.777,0.519-4.143,2.684-5.932l3.342-2.777
		c2.119-1.741,3.201-1.788,5.838-1.788h7.154c1.507,0,3.107,0.329,3.107,2.259c0,1.978-1.789,2.26-3.107,2.26h-7.955
		c-0.895,0-1.789,0.471-2.589,1.13l-2.73,2.307c-0.706,0.564-1.224,1.035-1.224,1.93v5.602c0,0.895,0.518,1.365,1.224,1.931
		l2.73,2.307c0.8,0.658,1.694,1.129,2.589,1.129h7.955c1.318,0,3.107,0.283,3.107,2.26c0,1.931-1.601,2.26-3.107,2.26h-7.154
		c-2.637,0-3.719-0.047-5.838-1.789l-3.342-2.777c-2.165-1.788-2.684-3.153-2.684-5.931V756.404z"/>
	<path style="fill:#FFFFFF;" d="M1776.471,771.279c-1.883,0-2.636,0-4.048-1.224l-1.931-1.695c-1.788-1.601-2.307-2.636-2.307-5.084
		v-8.708c0-2.4,0.33-3.813,2.213-5.413l1.601-1.365c2.118-1.836,3.153-1.883,4.989-1.883h4.143c2.213,0,3.248,0.235,4.99,1.647
		l1.836,1.459c2.071,1.647,2.354,3.39,2.354,5.884v3.625c0,2.589-0.424,3.342-3.107,3.342h-14.498v1.507
		c0,0.424,0.329,0.988,0.659,1.318l1.13,1.224c0.611,0.659,1.506,0.847,3.013,0.847h9.696c1.507,0,3.107,0.33,3.107,2.26
		c0,1.978-1.789,2.26-3.107,2.26H1776.471z M1772.705,757.346h13.086v-2.73c0-0.848,0.048-1.554-0.564-2.118l-1.742-1.507
		c-0.564-0.518-1.459-0.564-2.165-0.564h-3.813c-0.848,0-1.554,0-2.307,0.518l-1.554,1.13c-0.564,0.424-0.941,0.753-0.941,2.071
		V757.346z"/>
</g>
</svg>
